<svg width="621" height="196" viewBox="0 0 621 196" fill="none" xmlns="http://www.w3.org/2000/svg">
<g clip-path="url(#clip0_1_2)">
<path d="M546 196C504.6 196 471 162.4 471 121C471 79.6 504.6 46 546 46C587.4 46 621 79.6 621 121C621 162.4 587.4 196 546 196ZM546 165C570.3 165 590 145.3 590 121C590 96.7 570.3 77 546 77C521.7 77 502 96.7 502 121C502 145.3 521.7 165 546 165ZM389 196C347.6 196 314 162.4 314 121C314 79.6 347.6 46 389 46C430.4 46 464 79.6 464 121C464 162.4 430.4 196 389 196ZM389 165C413.3 165 433 145.3 433 121C433 96.7 413.3 77 389 77C364.7 77 345 96.7 345 121C345 145.3 364.7 165 389 165ZM307 120C307 161.9 273.4 196 232 196C190.6 196 157 162 157 120.1C157 78.2 187.5 46 232 46C248.4 46 263.6 49.5 276 58.6V15.1C276 6.8 283.3 0 291.5 0C299.7 0 307 6.8 307 15.1V120ZM232 165C256.3 165 276 145.3 276 121C276 96.7 256.3 77 232 77C207.7 77 188 96.7 188 121C188 145.3 207.7 165 232 165Z" fill="white"/>
<path d="M75 196C33.6 196 0 162.4 0 121C0 79.6 33.6 46 75 46C116.4 46 150 79.6 150 121C150 162.4 116.4 196 75 196ZM75 165C99.3 165 119 145.3 119 121C119 96.7 99.3 77 75 77C50.7 77 31 96.7 31 121C31 145.3 50.7 165 75 165Z" fill="white"/>
</g>
<defs>
<clipPath id="clip0_1_2">
<rect width="621" height="196" fill="white"/>
</clipPath>
</defs>
</svg>
